<svg width="22" height="20" viewBox="0 0 22 20" fill="none" xmlns="http://www.w3.org/2000/svg">
<path d="M18.135 4.16996C17.9022 3.78067 18.4928 3.42833 18.7256 3.81761C19.444 5.01388 18.0158 5.8095 18.6433 6.29824C18.9982 6.5767 18.5752 7.11943 18.2174 6.84096C16.9709 5.86633 18.6376 5.01104 18.135 4.16996Z" fill="#FF6A28"/>
<path d="M3.50648 10.498H2.07542C1.55297 10.498 1.55297 10.91 2.07542 10.91H2.97835C3.16859 10.91 3.32192 11.035 3.32192 11.1884V11.8562H3.50648V10.498ZM19.9267 9.93534C21.3578 9.93534 21.3578 11.4698 19.9267 11.4698H19.3673V12.1375C19.3673 12.2909 19.214 12.416 19.0209 12.416H18.4843V17.5278C18.4843 18.5877 17.1611 19.227 15.9714 19.227H6.0165C4.8268 19.227 3.50648 18.5877 3.50648 17.5278V12.416H2.97835C2.78811 12.416 2.63194 12.2909 2.63194 12.1375V11.4698H2.07542C0.641526 11.4698 0.641526 9.93534 2.07542 9.93534C8.02396 9.93534 13.9753 9.93534 19.9267 9.93534ZM18.4843 10.498V11.8562H18.6774V11.1884C18.6774 11.035 18.8307 10.91 19.0209 10.91H19.9267C20.4463 10.91 20.4463 10.498 19.9267 10.498H18.4843ZM17.7943 17.5278C17.7943 15.1836 17.7943 12.8393 17.7943 10.498H4.20497C4.20497 12.8393 4.19645 15.1836 4.19645 17.5278C4.19645 18.2638 5.21863 18.6672 6.0165 18.6672H15.9714C16.7693 18.6672 17.7943 18.2638 17.7943 17.5278Z" fill="#FF6A28"/>
<path d="M15.7045 4.99399C15.4717 4.60755 16.0623 4.25236 16.2951 4.64164C16.6529 5.2412 16.1162 5.76119 16.2128 5.83507C16.5677 6.11354 16.1446 6.65626 15.7869 6.3778C15.0458 5.79813 15.8749 5.28098 15.7045 4.99399Z" fill="#FF6A28"/>
<path d="M7.46743 2.53894L9.59414 1.43928C10.091 1.19207 10.6958 1.39382 10.9514 1.8854C11.0224 2.03316 11.1899 2.28321 11.3205 2.53326L13.751 1.27732C14.9691 0.649349 16.4825 1.12388 17.1242 2.3372C17.2236 2.52758 17.2094 2.74637 17.0021 2.85435L4.3015 9.41535C4.13114 9.5006 3.92386 9.4324 3.83868 9.26191C3.21969 8.01165 3.63141 6.52271 4.88358 5.86065L7.36237 4.57913L7.01029 3.90002C6.76894 3.40844 6.9677 2.77763 7.46743 2.53894ZM5.21295 6.46588C4.43212 6.87506 4.05448 7.79286 4.31854 8.6311L16.3547 2.41107C15.8238 1.70638 14.8499 1.48475 14.0662 1.89108C11.1132 3.41696 8.16308 4.94 5.21295 6.46588ZM9.86956 2.07294L7.75705 3.16407C7.61224 3.24931 7.55545 3.43117 7.6236 3.58461L7.97284 4.26373L10.6816 2.86571L10.3295 2.18375C10.2273 2.01042 10.0371 1.98769 9.86956 2.07294Z" fill="#FF6A28"/>
<path d="M18.135 4.16996C17.9022 3.78067 18.4928 3.42833 18.7256 3.81761C19.444 5.01388 18.0158 5.8095 18.6433 6.29824C18.9982 6.5767 18.5752 7.11943 18.2174 6.84096C16.9709 5.86633 18.6376 5.01104 18.135 4.16996Z" stroke="#FF6A28" stroke-width="0.4"/>
<path d="M3.50648 10.498H2.07542C1.55297 10.498 1.55297 10.91 2.07542 10.91H2.97835C3.16859 10.91 3.32192 11.035 3.32192 11.1884V11.8562H3.50648V10.498ZM19.9267 9.93534C21.3578 9.93534 21.3578 11.4698 19.9267 11.4698H19.3673V12.1375C19.3673 12.2909 19.214 12.416 19.0209 12.416H18.4843V17.5278C18.4843 18.5877 17.1611 19.227 15.9714 19.227H6.0165C4.8268 19.227 3.50648 18.5877 3.50648 17.5278V12.416H2.97835C2.78811 12.416 2.63194 12.2909 2.63194 12.1375V11.4698H2.07542C0.641526 11.4698 0.641526 9.93534 2.07542 9.93534C8.02396 9.93534 13.9753 9.93534 19.9267 9.93534ZM18.4843 10.498V11.8562H18.6774V11.1884C18.6774 11.035 18.8307 10.91 19.0209 10.91H19.9267C20.4463 10.91 20.4463 10.498 19.9267 10.498H18.4843ZM17.7943 17.5278C17.7943 15.1836 17.7943 12.8393 17.7943 10.498H4.20497C4.20497 12.8393 4.19645 15.1836 4.19645 17.5278C4.19645 18.2638 5.21863 18.6672 6.0165 18.6672H15.9714C16.7693 18.6672 17.7943 18.2638 17.7943 17.5278Z" stroke="#FF6A28" stroke-width="0.4"/>
<path d="M15.7045 4.99399C15.4717 4.60755 16.0623 4.25236 16.2951 4.64164C16.6529 5.2412 16.1162 5.76119 16.2128 5.83507C16.5677 6.11354 16.1446 6.65626 15.7869 6.3778C15.0458 5.79813 15.8749 5.28098 15.7045 4.99399Z" stroke="#FF6A28" stroke-width="0.4"/>
<path d="M7.46743 2.53894L9.59414 1.43928C10.091 1.19207 10.6958 1.39382 10.9514 1.8854C11.0224 2.03316 11.1899 2.28321 11.3205 2.53326L13.751 1.27732C14.9691 0.649349 16.4825 1.12388 17.1242 2.3372C17.2236 2.52758 17.2094 2.74637 17.0021 2.85435L4.3015 9.41535C4.13114 9.5006 3.92386 9.4324 3.83868 9.26191C3.21969 8.01165 3.63141 6.52271 4.88358 5.86065L7.36237 4.57913L7.01029 3.90002C6.76894 3.40844 6.9677 2.77763 7.46743 2.53894ZM5.21295 6.46588C4.43212 6.87506 4.05448 7.79286 4.31854 8.6311L16.3547 2.41107C15.8238 1.70638 14.8499 1.48475 14.0662 1.89108C11.1132 3.41696 8.16308 4.94 5.21295 6.46588ZM9.86956 2.07294L7.75705 3.16407C7.61224 3.24931 7.55545 3.43117 7.6236 3.58461L7.97284 4.26373L10.6816 2.86571L10.3295 2.18375C10.2273 2.01042 10.0371 1.98769 9.86956 2.07294Z" stroke="#FF6A28" stroke-width="0.4"/>
</svg>
